<svg xmlns="http://www.w3.org/2000/svg"><path d="M24 26h-1v-3.273a5.755 5.755 0 00-1.903-4.274l-1.693-1.523a1.238 1.238 0 01-.414-.93c0-.359.147-.689.414-.929l1.693-1.523A5.76 5.76 0 0023 9.273V6h1a1 1 0 100-2H8a1 1 0 100 2h1v3.273c0 1.628.693 3.186 1.903 4.274l1.693 1.523c.267.241.414.571.414.93 0 .359-.147.689-.414.929l-1.693 1.523A5.76 5.76 0 009 22.727V26H8a1 1 0 100 2h16a1 1 0 100-2zm-12-3.171c0-.735.286-1.425.806-1.945l2.664-2.664a.75.75 0 011.061 0l2.664 2.664c.52.52.806 1.21.806 1.945V26H12v-3.171z"/></svg>