<svg viewBox="0 0 52 52" xmlns="http://www.w3.org/2000/svg"><path d="M37.231 30.412a5.552 5.552 0 00-5.546 5.546 5.552 5.552 0 005.546 5.546 5.552 5.552 0 005.546-5.546 5.552 5.552 0 00-5.546-5.546zm0 8.32a2.776 2.776 0 01-2.773-2.774 2.776 2.776 0 012.773-2.773 2.776 2.776 0 012.773 2.773 2.776 2.776 0 01-2.773 2.773zM18.282 30.412a5.552 5.552 0 00-5.547 5.546 5.552 5.552 0 005.547 5.546 5.552 5.552 0 005.546-5.546 5.553 5.553 0 00-5.546-5.546zm0 8.32a2.776 2.776 0 01-2.774-2.774 2.776 2.776 0 012.774-2.773 2.776 2.776 0 012.773 2.773 2.776 2.776 0 01-2.773 2.773zM40.966 14.537a1.387 1.387 0 00-1.24-.764h-7.302v2.773h6.448l3.775 7.51 2.479-1.246-4.16-8.273z"/><path d="M33.072 34.618H22.58v2.773h10.492v-2.773zM14.122 34.618H9.315a1.386 1.386 0 100 2.773h4.807a1.386 1.386 0 100-2.773zM47.709 26.141L44.98 22.63a1.385 1.385 0 00-1.094-.537H33.81v-9.705c0-.766-.62-1.387-1.387-1.387H9.315a1.386 1.386 0 100 2.773h21.723v9.706c0 .766.62 1.386 1.386 1.386h10.784l2.019 2.602v7.15H41.39a1.386 1.386 0 100 2.774h5.222c.766 0 1.387-.621 1.387-1.387v-9.012c0-.308-.103-.608-.291-.85zM14.03 27.593H7.65a1.386 1.386 0 100 2.773h6.378a1.386 1.386 0 100-2.773zM17.218 22.139H5.387a1.387 1.387 0 000 2.773h11.831a1.386 1.386 0 100-2.773z"/><path d="M19.483 16.685H7.651a1.386 1.386 0 100 2.773h11.832a1.386 1.386 0 100-2.773z"/></svg>